<svg width="228" height="24" viewBox="0 0 228 24" fill="none" xmlns="http://www.w3.org/2000/svg">
<path d="M0.312 0.599998H3.832V9.72H7.608V0.599998H11.128V23H7.608V12.92H3.832V23H0.312V0.599998ZM13.7495 0.599998H23.3495V3.8H17.2695V9.72H22.1015V12.92H17.2695V19.8H23.3495V23H13.7495V0.599998ZM25.3745 0.599998H30.5905C32.4038 0.599998 33.7265 1.02667 34.5585 1.88C35.3905 2.712 35.8065 4.00267 35.8065 5.752V7.128C35.8065 9.45333 35.0385 10.9253 33.5025 11.544V11.608C34.3558 11.864 34.9532 12.3867 35.2945 13.176C35.6572 13.9653 35.8385 15.0213 35.8385 16.344V20.28C35.8385 20.92 35.8598 21.4427 35.9025 21.848C35.9452 22.232 36.0518 22.616 36.2225 23H32.6385C32.5105 22.6373 32.4252 22.296 32.3825 21.976C32.3398 21.656 32.3185 21.08 32.3185 20.248V16.152C32.3185 15.128 32.1478 14.4133 31.8065 14.008C31.4865 13.6027 30.9212 13.4 30.1105 13.4H28.8945V23H25.3745V0.599998ZM30.1745 10.2C30.8785 10.2 31.4012 10.0187 31.7425 9.656C32.1052 9.29333 32.2865 8.68533 32.2865 7.832V6.104C32.2865 5.29333 32.1372 4.70667 31.8385 4.344C31.5612 3.98133 31.1132 3.8 30.4945 3.8H28.8945V10.2H30.1745ZM38.2808 0.599998H41.8008V23H38.2808V0.599998ZM47.189 3.8H43.509V0.599998H54.389V3.8H50.709V23H47.189V3.8ZM57.3445 0.599998H62.1125L65.7605 23H62.2405L61.6005 18.552V18.616H57.6005L56.9605 23H53.6965L57.3445 0.599998ZM61.1845 15.576L59.6165 4.504H59.5525L58.0165 15.576H61.1845ZM72.3978 23.32C70.6911 23.32 69.3898 22.84 68.4938 21.88C67.5978 20.8987 67.1497 19.5013 67.1497 17.688V5.912C67.1497 4.09867 67.5978 2.712 68.4938 1.752C69.3898 0.770665 70.6911 0.279999 72.3978 0.279999C74.1044 0.279999 75.4058 0.770665 76.3018 1.752C77.1978 2.712 77.6458 4.09867 77.6458 5.912V7.832H74.3177V5.688C74.3177 4.216 73.7098 3.48 72.4938 3.48C71.2778 3.48 70.6698 4.216 70.6698 5.688V17.944C70.6698 19.3947 71.2778 20.12 72.4938 20.12C73.7098 20.12 74.3177 19.3947 74.3177 17.944V13.56H72.5578V10.36H77.6458V17.688C77.6458 19.5013 77.1978 20.8987 76.3018 21.88C75.4058 22.84 74.1044 23.32 72.3978 23.32ZM79.9058 0.599998H89.5058V3.8H83.4258V9.72H88.2578V12.92H83.4258V19.8H89.5058V23H79.9058V0.599998ZM96.4908 23.32C94.8054 23.32 93.5148 22.84 92.6188 21.88C91.7441 20.92 91.3068 19.5653 91.3068 17.816V5.784C91.3068 4.03467 91.7441 2.68 92.6188 1.72C93.5148 0.759999 94.8054 0.279999 96.4908 0.279999C98.1761 0.279999 99.4561 0.759999 100.331 1.72C101.227 2.68 101.675 4.03467 101.675 5.784V8.152H98.3468V5.56C98.3468 4.17333 97.7601 3.48 96.5868 3.48C95.4134 3.48 94.8268 4.17333 94.8268 5.56V18.072C94.8268 19.4373 95.4134 20.12 96.5868 20.12C97.7601 20.12 98.3468 19.4373 98.3468 18.072V14.648H101.675V17.816C101.675 19.5653 101.227 20.92 100.331 21.88C99.4561 22.84 98.1761 23.32 96.4908 23.32ZM106.501 0.599998H111.269L114.917 23H111.397L110.757 18.552V18.616H106.757L106.117 23H102.853L106.501 0.599998ZM110.341 15.576L108.773 4.504H108.709L107.173 15.576H110.341ZM121.107 23.32C119.4 23.32 118.109 22.84 117.235 21.88C116.36 20.8987 115.923 19.5013 115.923 17.688V16.408H119.251V17.944C119.251 19.3947 119.859 20.12 121.075 20.12C121.672 20.12 122.12 19.9493 122.419 19.608C122.739 19.2453 122.899 18.6693 122.899 17.88C122.899 16.9413 122.685 16.12 122.259 15.416C121.832 14.6907 121.043 13.8267 119.891 12.824C118.44 11.544 117.427 10.392 116.851 9.368C116.275 8.32267 115.987 7.14933 115.987 5.848C115.987 4.07733 116.435 2.712 117.331 1.752C118.227 0.770665 119.528 0.279999 121.235 0.279999C122.92 0.279999 124.189 0.770665 125.043 1.752C125.917 2.712 126.355 4.09867 126.355 5.912V6.84H123.027V5.688C123.027 4.92 122.877 4.36533 122.579 4.024C122.28 3.66133 121.843 3.48 121.267 3.48C120.093 3.48 119.507 4.19467 119.507 5.624C119.507 6.43467 119.72 7.192 120.147 7.896C120.595 8.6 121.395 9.45333 122.547 10.456C124.019 11.736 125.032 12.8987 125.587 13.944C126.141 14.9893 126.419 16.216 126.419 17.624C126.419 19.4587 125.96 20.8667 125.043 21.848C124.147 22.8293 122.835 23.32 121.107 23.32ZM131.189 3.8H127.509V0.599998H138.389V3.8H134.709V23H131.189V3.8ZM140.093 0.599998H143.613V19.8H149.405V23H140.093V0.599998ZM151.093 0.599998H160.693V3.8H154.613V9.72H159.445V12.92H154.613V19.8H160.693V23H151.093V0.599998ZM170.595 3.8H166.915V0.599998H177.795V3.8H174.115V23H170.595V3.8ZM184.463 23.32C182.735 23.32 181.412 22.8293 180.495 21.848C179.577 20.8667 179.118 19.48 179.118 17.688V5.912C179.118 4.12 179.577 2.73333 180.495 1.752C181.412 0.770665 182.735 0.279999 184.463 0.279999C186.191 0.279999 187.513 0.770665 188.431 1.752C189.348 2.73333 189.807 4.12 189.807 5.912V17.688C189.807 19.48 189.348 20.8667 188.431 21.848C187.513 22.8293 186.191 23.32 184.463 23.32ZM184.463 20.12C185.679 20.12 186.286 19.384 186.286 17.912V5.688C186.286 4.216 185.679 3.48 184.463 3.48C183.247 3.48 182.639 4.216 182.639 5.688V17.912C182.639 19.384 183.247 20.12 184.463 20.12ZM197.307 23.32C195.6 23.32 194.299 22.84 193.403 21.88C192.507 20.8987 192.059 19.5013 192.059 17.688V0.599998H195.579V17.944C195.579 18.712 195.728 19.2667 196.027 19.608C196.347 19.9493 196.795 20.12 197.371 20.12C197.947 20.12 198.384 19.9493 198.683 19.608C199.003 19.2667 199.163 18.712 199.163 17.944V0.599998H202.555V17.688C202.555 19.5013 202.107 20.8987 201.211 21.88C200.315 22.84 199.014 23.32 197.307 23.32ZM205.062 0.599998H210.278C212.091 0.599998 213.414 1.02667 214.246 1.88C215.078 2.712 215.494 4.00267 215.494 5.752V7.128C215.494 9.45333 214.726 10.9253 213.19 11.544V11.608C214.043 11.864 214.641 12.3867 214.982 13.176C215.345 13.9653 215.526 15.0213 215.526 16.344V20.28C215.526 20.92 215.547 21.4427 215.59 21.848C215.633 22.232 215.739 22.616 215.91 23H212.326C212.198 22.6373 212.113 22.296 212.07 21.976C212.027 21.656 212.006 21.08 212.006 20.248V16.152C212.006 15.128 211.835 14.4133 211.494 14.008C211.174 13.6027 210.609 13.4 209.798 13.4H208.582V23H205.062V0.599998ZM209.862 10.2C210.566 10.2 211.089 10.0187 211.43 9.656C211.793 9.29333 211.974 8.68533 211.974 7.832V6.104C211.974 5.29333 211.825 4.70667 211.526 4.344C211.249 3.98133 210.801 3.8 210.182 3.8H208.582V10.2H209.862ZM222.544 23.32C220.838 23.32 219.547 22.84 218.672 21.88C217.798 20.8987 217.36 19.5013 217.36 17.688V16.408H220.688V17.944C220.688 19.3947 221.296 20.12 222.512 20.12C223.11 20.12 223.558 19.9493 223.856 19.608C224.176 19.2453 224.336 18.6693 224.336 17.88C224.336 16.9413 224.123 16.12 223.696 15.416C223.27 14.6907 222.48 13.8267 221.328 12.824C219.878 11.544 218.864 10.392 218.288 9.368C217.712 8.32267 217.424 7.14933 217.424 5.848C217.424 4.07733 217.872 2.712 218.768 1.752C219.664 0.770665 220.966 0.279999 222.672 0.279999C224.358 0.279999 225.627 0.770665 226.48 1.752C227.355 2.712 227.792 4.09867 227.792 5.912V6.84H224.464V5.688C224.464 4.92 224.315 4.36533 224.016 4.024C223.718 3.66133 223.28 3.48 222.704 3.48C221.531 3.48 220.944 4.19467 220.944 5.624C220.944 6.43467 221.158 7.192 221.584 7.896C222.032 8.6 222.832 9.45333 223.984 10.456C225.456 11.736 226.47 12.8987 227.024 13.944C227.579 14.9893 227.856 16.216 227.856 17.624C227.856 19.4587 227.398 20.8667 226.48 21.848C225.584 22.8293 224.272 23.32 222.544 23.32Z" fill="white"/>
</svg>
