<svg width="19" height="19" viewBox="0 0 19 19" fill="none" xmlns="http://www.w3.org/2000/svg">
<path d="M2.91453 9.89798L7.97703 14.9605C8.08258 15.066 8.22573 15.1253 8.375 15.1253C8.52427 15.1253 8.66742 15.066 8.77297 14.9605C8.87852 14.8549 8.93781 14.7118 8.93781 14.5625C8.93781 14.4132 8.87852 14.2701 8.77297 14.1645L4.67023 10.0625H15.6875C15.8367 10.0625 15.9798 10.0032 16.0852 9.89776C16.1907 9.79227 16.25 9.64919 16.25 9.50001C16.25 9.35082 16.1907 9.20775 16.0852 9.10226C15.9798 8.99677 15.8367 8.93751 15.6875 8.93751H4.67023L8.77297 4.83548C8.87852 4.72993 8.93781 4.58677 8.93781 4.43751C8.93781 4.28824 8.87852 4.14509 8.77297 4.03954C8.66742 3.93399 8.52427 3.87469 8.375 3.87469C8.22573 3.87469 8.08258 3.93399 7.97703 4.03954L2.91453 9.10204C2.86223 9.15428 2.82074 9.21632 2.79243 9.2846C2.76413 9.35289 2.74956 9.42609 2.74956 9.50001C2.74956 9.57393 2.76413 9.64713 2.79243 9.71541C2.82074 9.7837 2.86223 9.84574 2.91453 9.89798Z" fill="#FFF0E7"/>
</svg>
