<svg width="44" height="44" viewBox="0 0 44 44" fill="none" xmlns="http://www.w3.org/2000/svg">
<rect width="44" height="44" fill="#FFF0E7"/>
<path d="M23.4496 10.9627C24.2609 12.3113 23.3414 13.9988 22.6563 15.4699C22.065 16.7355 22.1551 18.1706 23.7381 17.9868C25.6455 17.7668 26.4171 17.6154 28.0397 17.5036C29.6804 17.3918 30.196 18.0625 30.196 18.6863C30.196 19.6923 29.8607 19.768 29.8607 20.1538C29.8607 20.5396 31.1191 20.2908 31.1191 21.5565C31.1191 22.8221 30.1347 22.7824 30.1347 23.1358C30.1347 23.4892 31.0938 23.6478 31.0938 24.661C31.0938 25.6743 29.803 25.8077 29.803 26.2259C29.803 26.6442 30.2212 26.7524 30.2212 27.3798C30.2212 28.0072 28.9123 29.3846 24.297 29.3846C16.4328 29.3846 17.3631 27.5024 13.6924 27.5024V20.5396C15.6034 20.5396 15.4989 18.8485 16.8186 17.5577C18.1491 16.256 20.6948 13.3065 21.196 10.9807C21.5277 9.42305 22.952 10.1298 23.4496 10.9627Z" fill="#5D2020"/>
</svg>
